<?xml version="1.0" encoding="UTF-8"?>
<svg id="Layer_1" data-name="Layer 1" xmlns="http://www.w3.org/2000/svg" viewBox="0 0 20 20">
  <path d="m19.6196,9h-2.6992c-.4395-3.0636-2.8569-5.4811-5.9204-5.9205V.38c0-.209-.1714-.38-.3804-.38h-1.2397c-.209,0-.3799.171-.3799.38v2.6995c-3.064.4394-5.481,2.8569-5.9204,5.9205H.3799c-.209,0-.3799.171-.3799.38v1.2399c0,.209.1709.3801.3799.3801h2.6997c.4395,3.0635,2.8564,5.4811,5.9204,5.9205v2.6995c0,.209.1709.3801.3799.3801h1.2397c.209,0,.3804-.171.3804-.3801v-2.6995c3.0635-.4394,5.481-2.8569,5.9204-5.9205h2.6992c.209,0,.3804-.171.3804-.3801v-1.2399c0-.209-.1714-.38-.3804-.38Zm-9.6196,6.5c-3.0376,0-5.5-2.4625-5.5-5.5s2.4624-5.5,5.5-5.5,5.5,2.4624,5.5,5.5-2.4624,5.5-5.5,5.5Z"/>
  <path d="m10,7c-1.6571,0-3,1.3431-3,3s1.3429,3,3,3,3-1.3432,3-3-1.3433-3-3-3Zm0,4.4062c-.7767,0-1.4062-.6296-1.4062-1.4062s.6295-1.4062,1.4062-1.4062,1.4062.6296,1.4062,1.4062-.6298,1.4062-1.4062,1.4062Z"/>
</svg>